<svg width="12" height="21" viewBox="0 0 12 21" fill="none" xmlns="http://www.w3.org/2000/svg">
<path fill="#e87c87" d="M11.5918 0.406645C11.4633 0.277745 11.3106 0.175476 11.1425 0.105697C10.9744 0.035918 10.7942 0 10.6122 0C10.4302 0 10.25 0.035918 10.0819 0.105697C9.91384 0.175476 9.76116 0.277745 9.63263 0.406645L0.323703 9.71919C0.22109 9.82164 0.139681 9.94332 0.0841359 10.0773C0.0285906 10.2112 0 10.3548 0 10.4999C0 10.6449 0.0285906 10.7885 0.0841359 10.9224C0.139681 11.0564 0.22109 11.1781 0.323703 11.2805L9.63263 20.5931C10.175 21.1356 11.0494 21.1356 11.5918 20.5931C12.1342 20.0505 12.1342 19.1757 11.5918 18.6331L3.46727 10.5054L11.6029 2.3666C12.1342 1.82401 12.1342 0.949232 11.5918 0.406645Z" />
</svg>
