<svg width="16" height="18" viewBox="0 0 16 18" fill="none" xmlns="http://www.w3.org/2000/svg">
	<path
		d="M8 0C5.54933 0 3.55556 2.12495 3.55556 4.73684C3.55556 7.34874 5.54933 9.47368 8 9.47368C10.4507 9.47368 12.4444 7.34874 12.4444 4.73684C12.4444 2.12495 10.4507 0 8 0ZM8 7.57895C6.52978 7.57895 5.33333 6.30379 5.33333 4.73684C5.33333 3.16989 6.52978 1.89474 8 1.89474C9.47022 1.89474 10.6667 3.16989 10.6667 4.73684C10.6667 6.30379 9.47022 7.57895 8 7.57895ZM16 18V17.0526C16 13.3967 13.208 10.4211 9.77778 10.4211H6.22222C2.79111 10.4211 0 13.3967 0 17.0526V18H1.77778V17.0526C1.77778 14.4407 3.77156 12.3158 6.22222 12.3158H9.77778C12.2284 12.3158 14.2222 14.4407 14.2222 17.0526V18H16Z"
		fill="#ffb800"
		fill-opacity="0.52"
	/>
</svg>